# xmcd
#
# Track frame offsets: 
#        150
#        12127
#        23360
#        35535
#        42847
#        55450
#        67387
#        78622
#        90560
#        99002
#
# Disc length: 1463 seconds
#
# Revision: 4
# Processed by: cddbd v1.5.2PL0 Copyright (c) Steve Scherf et al.
# Submitted via: ExactAudioCopy v1.3
#
DISCID=7305b50a
DTITLE=Lester Flatt and Earl Scruggs - The Golden Hits
DYEAR=1987
DGENRE=Bluegrass
TTITLE0=Foggy Mountain Breakdown
TTITLE1=Salty Dog Blues
TTITLE2=We'll Meet Again Sweetheart
TTITLE3=Round Town Gals
TTITLE4=Doin' My Time
TTITLE5=Roll In My Sweet Baby's Arms
TTITLE6=Farewell Blues
TTITLE7=My Cabin In Caroline
TTITLE8=Bending The Strings
TTITLE9=Preachin' Prayin' Singin'
EXTD=
EXTT0=
EXTT1=
EXTT2=
EXTT3=
EXTT4=
EXTT5=
EXTT6=
EXTT7=
EXTT8=
EXTT9=
PLAYORDER=
